<?xml version="1.0" encoding="utf-8"?>
<!-- Generator: Adobe Illustrator 16.0.0, SVG Export Plug-In . SVG Version: 6.00 Build 0)  -->
<!DOCTYPE svg PUBLIC "-//W3C//DTD SVG 1.1//EN" "http://www.w3.org/Graphics/SVG/1.1/DTD/svg11.dtd">
<svg version="1.1" xmlns="http://www.w3.org/2000/svg" xmlns:xlink="http://www.w3.org/1999/xlink" x="0px" y="0px"
	 width="219.933px" height="219.828px" viewBox="0 0 219.933 219.828" enable-background="new 0 0 219.933 219.828"
	 xml:space="preserve">
<g id="bg" display="none">
	
		<rect x="-52.074" y="-352.753" display="inline" fill-rule="evenodd" clip-rule="evenodd" fill="#211F20" width="1156" height="621"/>
</g>
<g id="storm">
</g>
<g id="snow">
</g>
<g id="sleet">
</g>
<g id="wind">
</g>
<g id="rain">
</g>
<g id="partly-cloudy-night">
</g>
<g id="clear-night">
</g>
<g id="partly-cloudy-day">
</g>
<g id="cloudy">
</g>
<g id="fog">
</g>
<g id="clear-day">
	<linearGradient id="SVGID_1_" gradientUnits="userSpaceOnUse" x1="109.9663" y1="0" x2="109.9663" y2="219.8281">
		<stop  offset="0" style="stop-color:#FFFFFF"/>
		<stop  offset="0" style="stop-color:#FAC86A"/>
		<stop  offset="1" style="stop-color:#F1684E"/>
	</linearGradient>
	<path fill="url(#SVGID_1_)" d="M31.793,118.219c-3.988,0.147-7.985,0.03-11.979,0.03c-3.827-0.015-7.662,0.14-11.479-0.053
		c3.816,0.192,7.651,0.038,11.479,0.045C23.808,118.249,27.805,118.366,31.793,118.219z M61.521,169.891
		c0.322-0.451,0.607-0.917,0.834-1.407C62.129,168.974,61.844,169.439,61.521,169.891z M199.527,118.253
		c-3.83-0.005-7.666,0.127-11.49-0.037c3.824,0.164,7.66,0.032,11.49,0.042c3.332,0,6.663,0.021,9.994-0.005
		C206.19,118.278,202.859,118.258,199.527,118.253z M124.715,158.565c-0.295,0.114-0.525,0.393-0.786,0.596
		c-11.809,2.248-23.364,2.227-34.645-2.832c-29.378-13.176-39.321-49.814-20.747-76.074c5.169-7.309,12.049-12.314,19.416-16.928
		c8.273-2.486,16.518-4.616,25.365-4.242c20.262,0.855,40.548,17.705,44.841,35.851C165.287,125.06,153.768,147.269,124.715,158.565
		z M144.077,109.915c-0.054-19.066-15.188-34.553-34.221-34.158c-21.94,0.455-34.741,16.8-34.41,34.094
		c0.365,19.08,12.728,33.777,34.589,34.244C128.85,144.498,144.129,128.753,144.077,109.915z M19.814,118.241
		c3.993,0.008,7.99,0.125,11.979-0.022c5.027-0.187,8.413-3.407,8.609-7.913c0.211-4.818-3.036-8.531-8.3-8.695
		c-7.979-0.248-15.977-0.247-23.956,0.002c-4.869,0.152-8.166,3.881-8.146,8.384c0.02,4.459,3.425,7.951,8.336,8.2
		C12.152,118.389,15.987,118.234,19.814,118.241z M63.038,164.866c0.152-3.6-1.681-6.059-4.765-7.469
		c-3.356-1.536-6.551-0.764-9.167,1.758c-5.481,5.284-10.979,10.561-16.263,16.039c-3.92,4.064-3.965,8.986-0.529,12.393
		c3.567,3.536,8.146,3.38,12.338-0.673c5.246-5.071,10.331-10.311,15.518-15.444c0.232-0.229,0.453-0.463,0.662-0.701
		c0.25-0.285,0.477-0.579,0.689-0.878c0.322-0.451,0.607-0.917,0.834-1.407C62.859,167.396,63.113,166.205,63.038,164.866z
		 M50.148,61.569c2.494,2.33,5.8,2.316,8.873,0.572c2.881-1.635,4.28-4.09,3.89-7.816c0.778-2.222-0.994-3.652-2.528-5.203
		c-5.502-5.559-11.006-11.115-16.493-16.688c-2.833-2.878-8.674-3.614-11.293-1.386c-3.077,2.617-4.067,8.783-1.2,11.865
		C37.4,49.364,43.706,55.553,50.148,61.569z M118.139,188.032c0-0.332-0.034-0.787-0.082-1.115c-0.657-4.52-4.281-7.693-8.574-7.43
		c-4.015,0.248-7.536,3.577-7.617,7.794c-0.154,8.145-0.147,16.282,0.027,24.425c0.1,4.701,3.477,7.976,7.789,8.117
		c4.449,0.146,8.102-2.998,8.35-7.848c0.204-3.98,0.042-7.729,0.042-11.729c0.022,0,0.046,0,0.069,0
		C118.143,196.247,118.145,192.022,118.139,188.032z M170.219,61.278c6.202-5.771,12.159-11.814,18.015-17.939
		c2.374-2.483,2.511-5.689,1.114-8.857c-1.443-3.278-4.221-4.494-7.479-4.811c-1.928,0.199-3.795,0.5-5.167,1.814
		c-5.995,5.741-12.067,11.414-17.821,17.391c-3.17,3.292-2.852,8.766,0.076,11.8C162.016,63.844,166.867,64.396,170.219,61.278z
		 M209.731,101.543c-7.159-0.122-14.324-0.104-21.484,0.003c-5.167,0.078-8.622,3.428-8.726,8.152
		c-0.104,4.773,3.303,8.295,8.516,8.518c3.824,0.164,7.66,0.032,11.49,0.037c3.332,0.005,6.663,0.025,9.994,0
		c6.415-0.048,10.172-3.017,10.403-8.188C220.137,105.309,215.908,101.648,209.731,101.543z M170.521,158.97
		c-3.348-3.214-8.008-3.037-11.252,0.014c-2.914,2.74-3.658,7.838-0.819,10.895c5.888,6.337,12.072,12.413,18.383,18.332
		c2.466,2.312,5.734,2.578,8.844,0.803c2.815-1.607,4.352-4.029,4.335-7.332c0.007-2.103-0.68-3.936-2.162-5.423
		C182.093,170.476,176.406,164.619,170.521,158.97z M101.699,31.79c0,0.33,0.004,0.664,0.037,0.993
		c0.436,4.392,3.479,7.363,7.75,7.576c4.473,0.223,8.4-2.646,8.577-7.159c0.337-8.608,0.349-17.246,0.054-25.855
		c-0.152-4.463-4.113-7.479-8.46-7.34c-4.462,0.143-7.713,3.238-7.928,7.902c-0.184,3.973-0.038,7.959-0.035,11.939
		C101.697,23.828,101.696,27.809,101.699,31.79z"/>
</g>
</svg>
