<?xml version="1.0" encoding="utf-8"?>
<!-- Generator: Adobe Illustrator 16.0.0, SVG Export Plug-In . SVG Version: 6.00 Build 0)  -->
<!DOCTYPE svg PUBLIC "-//W3C//DTD SVG 1.1//EN" "http://www.w3.org/Graphics/SVG/1.1/DTD/svg11.dtd">
<svg version="1.1" xmlns="http://www.w3.org/2000/svg" xmlns:xlink="http://www.w3.org/1999/xlink" x="0px" y="0px"
	 width="270.53px" height="162.895px" viewBox="0 0 270.53 162.895" enable-background="new 0 0 270.53 162.895"
	 xml:space="preserve">
<g id="bg" display="none">
	
		<rect x="-313.445" y="-50.457" display="inline" fill-rule="evenodd" clip-rule="evenodd" fill="#211F20" width="1156" height="621"/>
</g>
<g id="storm">
</g>
<g id="snow">
</g>
<g id="sleet">
</g>
<g id="wind">
</g>
<g id="rain">
</g>
<g id="partly-cloudy-night">
</g>
<g id="clear-night">
</g>
<g id="partly-cloudy-day">
</g>
<g id="cloudy">
	<linearGradient id="SVGID_1_" gradientUnits="userSpaceOnUse" x1="135.2651" y1="0" x2="135.2651" y2="162.8955">
		<stop  offset="0" style="stop-color:#FFFFFF"/>
		<stop  offset="0" style="stop-color:#A7D4FA"/>
		<stop  offset="1" style="stop-color:#DAE2F6"/>
	</linearGradient>
	<path fill-rule="evenodd" clip-rule="evenodd" fill="url(#SVGID_1_)" d="M268.201,44.957c-1.043-2.062-2.518-3.903-3.818-5.843
		c-0.078-0.082-0.148-0.172-0.209-0.267c-0.516-0.414-1.025-0.837-1.537-1.261c-0.645-0.443-1.266-0.914-1.857-1.403
		c-0.141-0.056-0.268-0.125-0.383-0.209c-0.76-0.375-1.58-0.636-2.326-1.009c-0.146-0.027-0.281-0.068-0.404-0.123
		c-0.064-0.013-0.125-0.027-0.18-0.051c-3.975-1.596-8.051-2.126-12.256-1.271c-1.145,0.232-1.572-0.209-1.975-1.177
		c-2.082-5.021-5.32-9.171-9.555-12.575c-0.105-0.084-0.203-0.199-0.299-0.324c-0.129-0.094-0.242-0.205-0.338-0.328
		c-0.09-0.076-0.174-0.156-0.242-0.248c-0.107-0.088-0.205-0.184-0.289-0.291c-0.094-0.059-0.18-0.125-0.26-0.199
		c-0.787-0.551-1.574-1.097-2.457-1.472c-0.812-0.346-1.6-0.684-2.348-1.091c-0.188-0.041-0.354-0.107-0.504-0.193
		c-0.078-0.021-0.158-0.038-0.23-0.068c-0.02-0.002-0.037-0.004-0.055-0.008c-0.002,0-0.006-0.002-0.008-0.002
		c-0.082-0.021-0.16-0.047-0.232-0.076c-0.453-0.147-0.814-0.262-1.166-0.389c-5.236-1.896-10.602-2.43-16.101-1.529
		c-16.038,2.627-27.298,17.154-26.082,33.643c0.156,2.114,0.541,4.17,1.117,6.149c-7.421-1.743-14.984-1.983-22.715-0.414
		c-2.973,0.604-4.084-0.542-5.127-3.053c-5.406-13.027-13.807-23.797-24.797-32.634c-0.271-0.218-0.527-0.517-0.774-0.84
		c-0.336-0.244-0.626-0.532-0.875-0.851c-0.232-0.197-0.451-0.406-0.632-0.646c-0.279-0.226-0.531-0.476-0.747-0.754
		c-0.243-0.152-0.47-0.324-0.673-0.516c-2.043-1.431-4.09-2.846-6.379-3.82c-2.105-0.896-4.147-1.773-6.094-2.83
		c-0.482-0.107-0.917-0.277-1.304-0.502c-0.203-0.055-0.415-0.099-0.6-0.178c-0.048-0.006-0.098-0.009-0.142-0.02v0.001
		c-0.008-0.003-0.015-0.005-0.022-0.007c-0.211-0.055-0.413-0.12-0.604-0.198c-1.171-0.381-2.111-0.677-3.021-1.007
		C96.114,0.155,82.188-1.23,67.918,1.105C26.299,7.922-2.921,45.623,0.233,88.409c3.045,41.273,38.756,74.325,80.545,74.427
		c30.318,0.074,60.637,0.09,90.955-0.014c41.316-0.141,67.998-43.417,49.369-80.214c-1.18-2.33-2.577-4.549-4.052-6.731
		c10.708,0.022,21.418,0.027,32.128-0.009C265.1,75.813,275.381,59.137,268.201,44.957z M171.635,146.167
		c-15.65,0.121-31.305,0.023-46.957,0.023c-14.32-0.012-28.641,0.031-42.961-0.021c-35.047-0.127-62.602-25.881-65.094-60.789
		c-2.385-33.421,21.82-63.105,55.68-68.278c28.375-4.336,57.678,12.229,68.717,38.903c1.523,3.683,3.258,7.374,4.076,11.233
		c1.186,5.584,4.027,6.081,8.857,4.559c4.727-1.49,9.67-2.717,14.592-3.1c22.27-1.732,41.107,15.02,41.836,36.862
		C211.139,128.239,194.276,145.991,171.635,146.167z M243.421,65.453c-4.849,0.038-9.698,0.007-14.549,0.007
		c-4.436-0.003-8.874,0.01-13.31-0.007c-3.287-0.012-6.356-0.761-9.067-2.086c-1.614-1.12-3.174-2.298-4.656-3.525
		c-0.295-0.118-0.555-0.277-0.807-0.443c-3.202-3.295-5.278-7.719-5.639-12.778c-0.739-10.355,6.761-19.552,17.251-21.155
		c8.792-1.343,17.87,3.789,21.291,12.054c0.472,1.141,1.009,2.285,1.264,3.48c0.365,1.731,1.246,1.884,2.743,1.413
		c1.465-0.462,2.996-0.842,4.521-0.96c6.899-0.537,12.736,4.653,12.962,11.421C255.66,59.899,250.437,65.399,243.421,65.453z"/>
</g>
<g id="fog">
</g>
<g id="clear-day">
</g>
</svg>
