<?xml version="1.0" encoding="utf-8"?>
<!-- Generator: Adobe Illustrator 16.0.0, SVG Export Plug-In . SVG Version: 6.00 Build 0)  -->
<!DOCTYPE svg PUBLIC "-//W3C//DTD SVG 1.1//EN" "http://www.w3.org/Graphics/SVG/1.1/DTD/svg11.dtd">
<svg version="1.1" xmlns="http://www.w3.org/2000/svg" xmlns:xlink="http://www.w3.org/1999/xlink" x="0px" y="0px"
	 width="228.015px" height="232.258px" viewBox="0 0 228.015 232.258" enable-background="new 0 0 228.015 232.258"
	 xml:space="preserve">
<g id="bg" display="none">
	
		<rect x="-665.658" y="-265.742" display="inline" fill-rule="evenodd" clip-rule="evenodd" fill="#211F20" width="1156" height="621"/>
</g>
<g id="fog">
	<g>
		<g>
			<g>
				<path d="M180.896,52.809c-7.428-1.125-15.17-0.17-23.12-0.17c-0.881-1.896-1.907-4.15-2.97-6.387
					C136.825,8.394,92.67-9.504,53.146,5.042c-38.903,14.317-61.287,56.7-50.393,96.551c5.194,19.001,14.899,33.69,28.81,44.143
					c4.886-3.194,9.574-6.635,13.968-10.393c-15.756-10.441-26.552-27.567-28.783-47.707C13.55,58.781,31.219,30.528,58.861,20.292
					c33.591-12.439,70.647,4.517,83.457,38.211c1.808,4.754,3.491,9.555,5.297,14.509c4.389-1.119,8.037-2.559,11.786-2.896
					c7.049-0.638,14.447-2.04,21.186-0.641c19.449,4.041,32.141,22.629,29.881,41.943c-1.393,11.903-7.763,21.899-17.002,28.044
					c2.814,4.847,6.729,8.903,11.315,12.329c12.7-9.572,21.145-24.735,22.321-42.432C228.892,82.465,208.384,56.971,180.896,52.809z
					"/>
				<linearGradient id="fog-icon" gradientUnits="userSpaceOnUse" x1="113.6055" y1="0" x2="113.6055" y2="162.7642">
					<stop  offset="0" style="stop-color:#FFFFFF"/>
					<stop  offset="0" style="stop-color:#A6B0E3"/>
					<stop  offset="1" style="stop-color:#CFD6F1"/>
				</linearGradient>
				<path fill-rule="evenodd" clip-rule="evenodd" fill="url(#fog-icon)" d="M180.896,52.809c-7.428-1.125-15.17-0.17-23.12-0.17
					c-0.881-1.896-1.907-4.15-2.97-6.387C136.825,8.394,92.67-9.504,53.146,5.042c-38.903,14.317-61.287,56.7-50.393,96.551
					c5.194,19.001,14.899,33.69,28.81,44.143c4.886-3.194,9.574-6.635,13.968-10.393c-15.756-10.441-26.552-27.567-28.783-47.707
					C13.55,58.781,31.219,30.528,58.861,20.292c33.591-12.439,70.647,4.517,83.457,38.211c1.808,4.754,3.491,9.555,5.297,14.509
					c4.389-1.119,8.037-2.559,11.786-2.896c7.049-0.638,14.447-2.04,21.186-0.641c19.449,4.041,32.141,22.629,29.881,41.943
					c-1.393,11.903-7.763,21.899-17.002,28.044c2.814,4.847,6.729,8.903,11.315,12.329c12.7-9.572,21.145-24.735,22.321-42.432
					C228.892,82.465,208.384,56.971,180.896,52.809z"/>
			</g>
		</g>
		<linearGradient id="SVGID_2_" gradientUnits="userSpaceOnUse" x1="124.3418" y1="108.2578" x2="124.3418" y2="232.2578">
			<stop  offset="0" style="stop-color:#FFFFFF"/>
			<stop  offset="0" style="stop-color:#FFFFFF"/>
			<stop  offset="1" style="stop-color:#D4D9FF"/>
		</linearGradient>
		<path fill="url(#SVGID_2_)" d="M66.342,161.258c-12.897,0-12.897-20,0-20c37.333,0,74.667,0,112,0c12.897,0,12.897,20,0,20
			C141.009,161.258,103.675,161.258,66.342,161.258L66.342,161.258z M30.342,193.258c22.667,0,45.333,0,68,0
			c12.897,0,12.897-20,0-20c-22.667,0-45.333,0-68,0C17.444,173.258,17.444,193.258,30.342,193.258L30.342,193.258z
			 M127.342,208.258c30.333,0,60.667,0,91,0c12.897,0,12.897-20,0-20c-30.333,0-60.667,0-91,0
			C114.444,188.258,114.444,208.258,127.342,208.258L127.342,208.258z M63.342,232.258c15.667,0,31.333,0,47,0
			c12.897,0,12.897-20,0-20c-15.667,0-31.333,0-47,0C50.444,212.258,50.444,232.258,63.342,232.258L63.342,232.258z M54.342,128.258
			c15.667,0,31.333,0,47,0c12.897,0,12.897-20,0-20c-15.667,0-31.333,0-47,0C41.444,108.258,41.444,128.258,54.342,128.258
			L54.342,128.258z"/>
	</g>
</g>
<g id="clear-day">
</g>
</svg>
