<?xml version="1.0" encoding="utf-8"?>
<!-- Generator: Adobe Illustrator 16.0.0, SVG Export Plug-In . SVG Version: 6.00 Build 0)  -->
<!DOCTYPE svg PUBLIC "-//W3C//DTD SVG 1.1//EN" "http://www.w3.org/Graphics/SVG/1.1/DTD/svg11.dtd">
<svg version="1.1" xmlns="http://www.w3.org/2000/svg" xmlns:xlink="http://www.w3.org/1999/xlink" x="0px" y="0px"
	 width="265.577px" height="209.529px" viewBox="0 0 265.577 209.529" enable-background="new 0 0 265.577 209.529"
	 xml:space="preserve">
<g id="bg" display="none">
</g>

	<g>
		<linearGradient id="partly-cloudy-day-icon_1" gradientUnits="userSpaceOnUse" x1="173.5039" y1="4.882812e-04" x2="173.5039" y2="159.3207">
			<stop  offset="0" style="stop-color:#FFFFFF"/>
			<stop  offset="0" style="stop-color:#FAC86A"/>
			<stop  offset="1" style="stop-color:#F1684E"/>
		</linearGradient>
		<path fill="url(#partly-cloudy-day-icon_1)" d="M144.726,100.077c0.453,0.675,0.938,1.283,1.438,1.862c-1.014-3.068-1.565-6.4-1.633-9.909
			c-0.275-14.488,10.446-28.181,28.828-28.563c15.944-0.33,28.625,12.643,28.67,28.618c0.026,9.374-4.48,17.834-11.446,23.088
			c4.506,1.984,8.437,4.723,11.094,8.566c12.399-10.399,16.582-25.474,12.149-44.204c-3.597-15.202-20.591-29.318-37.566-30.035
			c-7.413-0.313-14.318,1.471-21.249,3.555c-6.173,3.864-11.937,8.059-16.269,14.182c-3.854,5.447-6.237,11.429-7.276,17.512
			C138.132,87.077,140.59,93.917,144.726,100.077z"/>
		<linearGradient id="partly-cloudy-day-icon_2" gradientUnits="userSpaceOnUse" x1="173.4639" y1="0" x2="173.4639" y2="159.3213">
			<stop  offset="0" style="stop-color:#FFFFFF"/>
			<stop  offset="0" style="stop-color:#FAC86A"/>
			<stop  offset="1" style="stop-color:#F1684E"/>
		</linearGradient>
		<path fill="url(#partly-cloudy-day-icon_2)" d="M166.524,26.633c0,0.277,0.005,0.556,0.031,0.832c0.365,3.68,2.914,6.169,6.493,6.348
			c3.747,0.186,7.037-2.216,7.186-5.998c0.281-7.212,0.292-14.449,0.045-21.661c-0.128-3.739-3.445-6.266-7.088-6.149
			c-3.737,0.119-6.461,2.712-6.641,6.62c-0.154,3.328-0.032,6.668-0.03,10.002C166.522,19.962,166.522,23.296,166.524,26.633z"/>
		<linearGradient id="partly-cloudy-day-icon_3" gradientUnits="userSpaceOnUse" x1="226.625" y1="0" x2="226.625" y2="159.3213">
			<stop  offset="0" style="stop-color:#FFFFFF"/>
			<stop  offset="0" style="stop-color:#FAC86A"/>
			<stop  offset="1" style="stop-color:#F1684E"/>
		</linearGradient>
		<path fill="url(#partly-cloudy-day-icon_3)" d="M223.93,51.337c5.195-4.834,10.187-9.898,15.092-15.029c1.989-2.081,2.104-4.767,0.934-7.421
			c-1.21-2.747-3.536-3.765-6.266-4.03c-1.615,0.166-3.179,0.419-4.329,1.52c-5.022,4.81-10.109,9.562-14.93,14.569
			c-2.656,2.758-2.39,7.344,0.063,9.886C217.057,53.486,221.122,53.949,223.93,51.337z"/>
		<linearGradient id="partly-cloudy-day-icon_4" gradientUnits="userSpaceOnUse" x1="120.1943" y1="0" x2="120.1943" y2="159.3213">
			<stop  offset="0" style="stop-color:#FFFFFF"/>
			<stop  offset="0" style="stop-color:#FAC86A"/>
			<stop  offset="1" style="stop-color:#F1684E"/>
		</linearGradient>
		<path fill="url(#partly-cloudy-day-icon_4)" d="M130.77,52.061c2.413-1.37,3.586-3.427,3.259-6.548c0.652-1.862-0.832-3.061-2.118-4.359
			c-4.609-4.657-9.221-9.312-13.816-13.981c-2.374-2.412-7.268-3.028-9.461-1.161c-2.578,2.192-3.407,7.357-1.006,9.94
			c5.029,5.404,10.312,10.589,15.71,15.629C125.426,53.533,128.195,53.521,130.77,52.061z"/>
		<linearGradient id="partly-cloudy-day-icon_5" gradientUnits="userSpaceOnUse" x1="248.6494" y1="-0.0039" x2="248.6494" y2="159.3229">
			<stop  offset="0" style="stop-color:#FFFFFF"/>
			<stop  offset="0" style="stop-color:#FAC86A"/>
			<stop  offset="1" style="stop-color:#F1684E"/>
		</linearGradient>
		<path fill="url(#partly-cloudy-day-icon_5)" d="M257.032,85.071c-5.999-0.104-12.001-0.088-17.999,0.002c-4.33,0.065-7.223,2.872-7.311,6.829
			c-0.086,4,2.767,6.951,7.134,7.138c3.204,0.137,6.419,0.025,9.627,0.033c2.791,0,5.582,0.019,8.372-0.004
			c5.374-0.041,8.521-2.527,8.716-6.859C265.749,88.223,262.207,85.158,257.032,85.071z"/>
		<linearGradient id="partly-cloudy-day-icon_6" gradientUnits="userSpaceOnUse" x1="226.542" y1="0.0044" x2="226.542" y2="159.3201">
			<stop  offset="0" style="stop-color:#FFFFFF"/>
			<stop  offset="0" style="stop-color:#FAC86A"/>
			<stop  offset="1" style="stop-color:#F1684E"/>
		</linearGradient>
		<path fill="url(#partly-cloudy-day-icon_6)" d="M224.183,133.181c-2.805-2.693-6.709-2.545-9.427,0.011c-2.44,2.297-3.065,6.566-0.687,9.128
			c4.933,5.31,10.113,10.4,15.401,15.357c2.065,1.938,4.804,2.16,7.408,0.673c2.359-1.346,3.646-3.375,3.632-6.144
			c0.007-1.759-0.568-3.295-1.811-4.542C233.877,142.82,229.113,137.914,224.183,133.181z"/>
		<linearGradient id="partly-cloudy-day-icon_7" gradientUnits="userSpaceOnUse" x1="133.2139" y1="-4.882812e-04" x2="133.2139" y2="159.3208">
			<stop  offset="0" style="stop-color:#FFFFFF"/>
			<stop  offset="0" style="stop-color:#FAC86A"/>
			<stop  offset="1" style="stop-color:#F1684E"/>
		</linearGradient>
		<path fill="url(#partly-cloudy-day-icon_7)" d="M132.865,142.33c0.271-0.377,0.509-0.768,0.698-1.179
			C133.374,141.562,133.136,141.953,132.865,142.33z"/>
		<g>
			<g>
				<linearGradient id="partly-cloudy-day-icon_8" gradientUnits="userSpaceOnUse" x1="113.5723" y1="46.6333" x2="113.5723" y2="209.5293">
					<stop  offset="0" style="stop-color:#FFFFFF"/>
					<stop  offset="0" style="stop-color:#A7D4FA"/>
					<stop  offset="1" style="stop-color:#DAE2F6"/>
				</linearGradient>
				<path fill-rule="evenodd" clip-rule="evenodd" fill="url(#partly-cloudy-day-icon_8)" d="M221.102,129.241
					c-2.708-5.348-6.537-10.127-9.913-15.16c-0.202-0.215-0.382-0.447-0.538-0.694c-1.341-1.075-2.666-2.172-3.994-3.27
					c-1.673-1.153-3.285-2.373-4.817-3.642c-0.363-0.145-0.695-0.326-0.991-0.545c-1.975-0.972-4.104-1.649-6.038-2.615
					c-0.378-0.071-0.73-0.178-1.052-0.32c-0.165-0.033-0.323-0.073-0.465-0.131c-10.312-4.144-20.891-5.519-31.801-3.303
					c-2.973,0.604-4.084-0.542-5.127-3.053c-5.406-13.027-13.807-23.797-24.797-32.634c-0.271-0.217-0.527-0.517-0.774-0.84
					c-0.336-0.244-0.626-0.532-0.875-0.851c-0.232-0.197-0.451-0.406-0.632-0.646c-0.279-0.226-0.531-0.476-0.747-0.754
					c-0.243-0.153-0.47-0.324-0.673-0.515c-2.043-1.431-4.09-2.847-6.379-3.821c-2.105-0.896-4.147-1.773-6.094-2.83
					c-0.482-0.107-0.917-0.278-1.304-0.501c-0.203-0.056-0.415-0.099-0.6-0.178c-0.048-0.006-0.098-0.009-0.142-0.021v0.001
					c-0.008-0.002-0.015-0.005-0.022-0.007c-0.211-0.054-0.413-0.12-0.604-0.198c-1.171-0.381-2.111-0.676-3.021-1.007
					c-13.588-4.919-27.514-6.305-41.783-3.969c-41.619,6.816-70.84,44.518-67.686,87.303c3.045,41.274,38.756,74.326,80.545,74.428
					c30.318,0.074,60.637,0.09,90.955-0.014C213.049,209.315,239.73,166.038,221.102,129.241z M171.635,192.799
					c-15.65,0.121-31.305,0.023-46.957,0.023c-14.32-0.012-28.641,0.032-42.961-0.021c-35.047-0.128-62.602-25.882-65.094-60.789
					c-2.385-33.422,21.82-63.105,55.68-68.278c28.375-4.336,57.678,12.229,68.717,38.903c1.523,3.683,3.258,7.374,4.076,11.233
					c1.186,5.584,4.027,6.081,8.857,4.559c4.727-1.49,9.67-2.717,14.592-3.1c22.27-1.732,41.107,15.02,41.836,36.862
					C211.139,174.872,194.275,192.624,171.635,192.799z"/>
			</g>
		</g>
	</g>
</g>
<g id="cloudy">
</g>
<g id="fog">
</g>
<g id="clear-day">
</g>
</svg>
