<?xml version="1.0" encoding="utf-8"?>
<!-- Generator: Adobe Illustrator 16.0.0, SVG Export Plug-In . SVG Version: 6.00 Build 0)  -->
<!DOCTYPE svg PUBLIC "-//W3C//DTD SVG 1.1//EN" "http://www.w3.org/Graphics/SVG/1.1/DTD/svg11.dtd">
<svg version="1.1" xmlns="http://www.w3.org/2000/svg" xmlns:xlink="http://www.w3.org/1999/xlink" x="0px" y="0px"
	 width="232.248px" height="201.974px" viewBox="0 0 232.248 201.974" enable-background="new 0 0 232.248 201.974"
	 xml:space="preserve">
<g id="bg" display="none">
</g>
<g id="storm">
</g>
<g id="snow">
</g>
<g id="sleet">
</g>
<g id="wind">
</g>
<g id="rain">
</g>
<g id="partly-cloudy-night">
	<g>
		<g>
			<linearGradient id="SVGID_1_" gradientUnits="userSpaceOnUse" x1="113.5728" y1="40.0781" x2="113.5727" y2="202.9746">
				<stop  offset="0" style="stop-color:#FFFFFF"/>
				<stop  offset="0" style="stop-color:#A7D4FA"/>
				<stop  offset="1" style="stop-color:#DAE2F6"/>
			</linearGradient>
			<path fill-rule="evenodd" clip-rule="evenodd" fill="url(#SVGID_1_)" d="M197.584,95.995c-1.147,0.655-3.095,0.793-4.291,0.313
				c-10.312-4.144-20.891-5.519-31.8-3.303c-2.973,0.604-4.085-0.542-5.128-3.053c-5.405-13.027-13.807-23.797-24.797-32.634
				c-0.854-0.686-1.716-1.993-2.037-3.159c-5.191-3.054-10.468-5.963-15.947-8.518c-0.077,0.241-0.159,0.479-0.234,0.722
				c-1.486-0.491-2.577-0.823-3.648-1.212c-13.587-4.919-27.514-6.305-41.783-3.969C26.299,48-2.921,85.701,0.233,128.486
				c3.045,41.274,38.757,74.327,80.545,74.428c30.318,0.074,60.637,0.09,90.955-0.014c41.316-0.141,67.999-43.418,49.369-80.215
				c-2.794-5.519-6.787-10.43-10.239-15.643c0.179-0.156,0.348-0.318,0.524-0.476c-4.992-2.91-9.743-6.449-13.588-10.294
				C197.728,96.184,197.656,96.087,197.584,95.995z M210.476,145.638c0.757,22.679-16.106,40.431-38.746,40.606
				c-15.651,0.121-31.305,0.023-46.958,0.023c-14.32-0.012-28.641,0.032-42.961-0.021c-35.047-0.128-62.602-25.882-65.093-60.789
				C14.333,92.036,38.538,62.353,72.397,57.18c28.375-4.336,57.678,12.229,68.717,38.903c1.524,3.683,3.258,7.374,4.076,11.233
				c1.186,5.584,4.027,6.081,8.857,4.559c4.728-1.49,9.67-2.717,14.592-3.1C190.91,107.043,209.747,123.795,210.476,145.638z"/>
			<linearGradient id="SVGID_2_" gradientUnits="userSpaceOnUse" x1="172.7988" y1="1" x2="172.7988" y2="107.043">
				<stop  offset="0" style="stop-color:#FFFFFF"/>
				<stop  offset="0" style="stop-color:#F9F9FB"/>
				<stop  offset="1" style="stop-color:#CED4E8"/>
			</linearGradient>
			<path fill-rule="evenodd" clip-rule="evenodd" fill="url(#SVGID_2_)" d="M231.39,53.934C188.336,61.286,165.503,43.896,163.149,1
				c-25.621,5.25-42.019,20.967-49.799,45.364c5.479,2.555,11.254,5.477,16.445,8.53c-0.123-0.446-0.437-1.608-0.367-1.97
				c2.336-12.138,8.627-21.731,19.162-28.681c10.633,30.888,32.023,47.439,65.14,49.55c-3.251,9.575-8.312,16.8-15.931,22.08
				c-0.064,0.045-0.144,0.081-0.215,0.121c0.071,0.092-3.34,0.47-3.269,0.56c8.23,3.555,11.961,6.718,16.547,10.488
				C229.341,90.511,234.531,67.262,231.39,53.934z"/>
		</g>
	</g>
</g>
<g id="clear-night">
</g>
<g id="partly-cloudy-day">
</g>
<g id="cloudy">
</g>
<g id="fog">
</g>
<g id="clear-day">
</g>
</svg>
