<?xml version="1.0" encoding="utf-8"?>
<!-- Generator: Adobe Illustrator 16.0.0, SVG Export Plug-In . SVG Version: 6.00 Build 0)  -->
<!DOCTYPE svg PUBLIC "-//W3C//DTD SVG 1.1//EN" "http://www.w3.org/Graphics/SVG/1.1/DTD/svg11.dtd">
<svg version="1.1" xmlns="http://www.w3.org/2000/svg" xmlns:xlink="http://www.w3.org/1999/xlink" x="0px" y="0px"
	 width="172.596px" height="222.172px" viewBox="0 0 172.596 222.172" enable-background="new 0 0 172.596 222.172"
	 xml:space="preserve">
<g id="bg" display="none">
</g>
<g id="rain">
	<linearGradient id="rain-icon_1" gradientUnits="userSpaceOnUse" x1="86.2979" y1="0" x2="86.2978" y2="222.1719">
		<stop  offset="0" style="stop-color:#FFFFFF"/>
		<stop  offset="0" style="stop-color:#8EB8FD"/>
		<stop  offset="1" style="stop-color:#3294E3"/>
	</linearGradient>
	<path fill-rule="evenodd" clip-rule="evenodd" fill="url(#rain-icon_1)" d="M43.783,45.499c15.654,22.816,32.312,44.131,40.828,70.176
		c4.763,14.566,4.018,28.98-3.232,42.566c-8.506,15.941-22.01,24.535-40.236,23.379c-18.934-1.199-31.074-12.237-37.706-29.555
		c-6.46-16.871-3.101-33.043,4.181-48.781C17.1,82.791,30.415,64.702,43.783,45.499z M43.768,73.825
		c-10.642,15.981-21.346,30.956-25.938,48.927c-1.623,6.352-1.604,13.598-0.432,20.092c2.438,13.51,13.463,22.685,25.826,23.035
		c12.113,0.343,22.738-8.216,26.674-21.486c2.186-7.37,2.172-14.711-0.072-22.088C64.476,104.712,54.377,89.715,43.768,73.825z
		 M135.629,108.976c14.034,20.74,30.145,39.498,35.924,64.003c4.293,18.204-5.074,38.515-20.553,45.733
		c-21.983,10.252-47.23-3.223-51.225-28.027c-1.15-7.148-0.932-15.152,1.081-22.059
		C107.394,146.197,122.156,128.332,135.629,108.976z M135.771,136.886c-8.734,12.492-16.578,24.375-20.463,38.37
		c-1.808,6.512-0.936,12.91,1.93,18.951c4.182,8.813,13.354,13.642,22.075,11.855c9.482-1.942,17.026-11.204,17.153-21.903
		C156.689,165.581,144.925,152.257,135.771,136.886z M113.912,0.151c7.491,12.154,15.303,24.126,22.365,36.524
		c5.078,8.913,6.852,18.692,3.981,28.921c-3.892,13.876-15.571,22.63-29.106,21.759C97.348,86.467,86.352,75.72,84.34,61.478
		c-1.215-8.611,0.354-16.818,4.511-24.126C96.064,24.667,104.059,12.427,111.725,0C112.454,0.05,113.184,0.101,113.912,0.151z
		 M114.107,28.747c-0.708,0.125-1.416,0.25-2.124,0.375c-2.837,5.044-6.079,9.913-8.381,15.19c-1.753,4.02-3.077,8.531-3.239,12.875
		c-0.291,7.803,5.307,13.792,11.976,14.014c6.76,0.225,12.261-5.302,12.917-13.2c0.162-1.951,0.231-4.165-0.51-5.89
		C121.366,44.25,117.682,36.522,114.107,28.747z"/>
</g>
<g id="partly-cloudy-night">
</g>
<g id="clear-night">
</g>
<g id="partly-cloudy-day">
</g>
<g id="cloudy">
</g>
<g id="fog">
</g>
<g id="clear-day">
</g>
</svg>
