<?xml version="1.0" encoding="utf-8"?>
<!-- Generator: Adobe Illustrator 16.0.0, SVG Export Plug-In . SVG Version: 6.00 Build 0)  -->
<!DOCTYPE svg PUBLIC "-//W3C//DTD SVG 1.1//EN" "http://www.w3.org/Graphics/SVG/1.1/DTD/svg11.dtd">
<svg version="1.1" xmlns="http://www.w3.org/2000/svg" xmlns:xlink="http://www.w3.org/1999/xlink" x="0px" y="0px"
	 width="190.596px" height="232.362px" viewBox="0 0 190.596 232.362" enable-background="new 0 0 190.596 232.362"
	 xml:space="preserve">
<g id="bg" display="none">
	
		<rect x="-818.031" y="-21.154" display="inline" fill-rule="evenodd" clip-rule="evenodd" fill="#211F20" width="1156" height="621"/>
</g>
<g id="storm">
</g>
<g id="snow">
</g>
<g id="sleet">
	<g>
		<linearGradient id="SVGID_1_" gradientUnits="userSpaceOnUse" x1="55.1172" y1="72.0186" x2="55.1172" y2="182.3149">
			<stop  offset="0" style="stop-color:#FFFFFF"/>
			<stop  offset="0" style="stop-color:#F9F9FB"/>
			<stop  offset="1" style="stop-color:#CED4E8"/>
		</linearGradient>
		<path fill-rule="evenodd" clip-rule="evenodd" fill="url(#SVGID_1_)" d="M110.23,127.064c0.15,4.457-3.442,7.309-9.406,7.499
			c-2.272,0.072-4.542,0.216-7.676,0.369c1.251,2.012,2.012,3.229,2.767,4.45c2.48,4.014,1.974,7.68-1.421,10.235
			c-3.29,2.476-7.234,1.979-10.238-1.596c-2.699-3.212-5.127-6.649-7.68-9.983c-2.295-2.998-9.45-4.789-12.661-3.149
			c-0.422,0.217-0.851,0.542-1.114,0.928c-1.944,2.843-0.115,13.691,2.652,15.832c3.32,2.57,6.702,5.065,9.968,7.705
			c3.733,3.021,4.53,6.746,2.328,10.118c-2.219,3.398-6.511,4.088-10.729,1.705c-1.14-0.644-2.25-1.341-3.946-2.358
			c-1.597,5.537,0.686,13.917-8.479,13.479c-8.356-0.397-5.987-8.185-7.491-13.673c-1.776,1.123-2.999,1.945-4.269,2.686
			c-3.832,2.238-8.211,1.656-10.345-1.612c-2.376-3.647-1.707-7.057,1.552-9.876c2.031-1.758,3.962-3.909,6.345-4.929
			c8.185-3.5,7.675-10.401,7.332-17.33c-0.039-0.776-0.28-1.744-0.793-2.262c-1.851-1.877-13.789-0.618-15.559,1.642
			c-2.589,3.305-5.015,6.738-7.595,10.053c-3.422,4.398-7.567,5.309-11.307,2.59c-3.495-2.542-3.711-6.361-0.688-11.098
			c0.592-0.927,1.002-1.968,1.729-3.419c-10.808-1.343-13.622-2.821-13.506-7.47c0.224-8.887,7.547-7.123,13.746-8.053
			c-1.196-1.991-2.173-3.446-2.976-4.991c-1.828-3.519-1.788-6.965,1.556-9.474c3.364-2.528,7.075-2.538,9.96,0.772
			c3.191,3.664,5.945,7.707,8.958,11.529c1.794,2.278,13.392,3.833,15.513,2.165c1.959-1.539,1.154-11.08-1.266-13.034
			c-3.265-2.637-6.75-4.997-10.034-7.612c-4.538-3.614-5.548-7.732-2.928-11.247c2.628-3.528,6.704-3.758,11.647-0.69
			c0.812,0.502,1.694,0.887,3.275,1.703c0.147-3.36,0.226-6.145,0.404-8.921c0.312-4.833,3.315-7.895,7.49-7.721
			c3.988,0.167,6.667,3.154,6.901,7.791c0.12,2.347,0.115,4.7,0.206,7.047c0.011,0.304,0.273,0.596,0.752,1.573
			c1.517-0.89,2.959-1.824,4.478-2.609c3.792-1.958,7.375-1.484,9.858,1.977c2.509,3.499,1.747,7.151-1.453,9.894
			c-3.31,2.836-6.962,5.269-10.409,7.949c-3.014,2.34-4.656,9.509-3.012,12.753c1.393,2.746,10.586,2.234,13.032-0.819
			c2.52-3.143,4.859-6.432,7.354-9.598c3.882-4.921,7.816-5.946,11.541-3.101c3.556,2.718,3.667,6.385,0.375,11.557
			c-0.438,0.689-0.802,1.428-1.693,3.03c2.936,0.211,5.277,0.465,7.626,0.532C106.637,120.167,110.081,122.735,110.23,127.064z"/>
		<linearGradient id="SVGID_2_" gradientUnits="userSpaceOnUse" x1="124.9922" y1="0" x2="124.9922" y2="222.1709">
			<stop  offset="0" style="stop-color:#FFFFFF"/>
			<stop  offset="0" style="stop-color:#8EB8FD"/>
			<stop  offset="1" style="stop-color:#3294E3"/>
		</linearGradient>
		<path fill-rule="evenodd" clip-rule="evenodd" fill="url(#SVGID_2_)" d="M152.465,65.597c2.87-10.229,1.097-20.008-3.981-28.921
			c-7.062-12.398-14.874-24.37-22.365-36.524C125.39,0.101,124.66,0.05,123.931,0c-7.666,12.427-15.66,24.667-22.874,37.352
			c-4.157,7.308-5.726,15.515-4.511,24.126c2.012,14.243,13.008,24.99,26.812,25.878C136.894,88.227,148.573,79.473,152.465,65.597z
			 M112.569,57.187c0.162-4.343,1.486-8.854,3.239-12.875c2.302-5.278,5.544-10.146,8.381-15.19c0.708-0.125,1.416-0.25,2.124-0.375
			c3.574,7.775,7.259,15.503,10.639,23.363c0.741,1.726,0.672,3.939,0.51,5.89c-0.656,7.898-6.157,13.425-12.917,13.2
			C117.876,70.979,112.278,64.989,112.569,57.187z"/>
		<linearGradient id="SVGID_3_" gradientUnits="userSpaceOnUse" x1="153.8379" y1="10.1909" x2="153.8379" y2="232.3618">
			<stop  offset="0" style="stop-color:#FFFFFF"/>
			<stop  offset="0" style="stop-color:#8EB8FD"/>
			<stop  offset="1" style="stop-color:#3294E3"/>
		</linearGradient>
		<path fill-rule="evenodd" clip-rule="evenodd" fill="url(#SVGID_3_)" d="M189.553,183.17
			c-5.779-24.506-21.89-43.264-35.924-64.003c-13.473,19.355-28.235,37.22-34.772,59.65c-2.013,6.906-2.231,14.91-1.081,22.059
			c3.994,24.805,29.241,38.279,51.225,28.027C184.479,221.684,193.846,201.374,189.553,183.17z M157.313,216.254
			c-8.721,1.785-17.894-3.043-22.075-11.855c-2.865-6.041-3.737-12.439-1.93-18.951c3.885-13.996,11.729-25.879,20.463-38.371
			c9.153,15.371,20.918,28.695,20.695,47.273C174.34,205.049,166.796,214.311,157.313,216.254z"/>
	</g>
</g>
<g id="wind">
</g>
<g id="rain">
</g>
<g id="partly-cloudy-night">
</g>
<g id="clear-night">
</g>
<g id="partly-cloudy-day">
</g>
<g id="cloudy">
</g>
<g id="fog">
</g>
<g id="clear-day">
</g>
</svg>
