<?xml version="1.0" encoding="utf-8"?>
<!-- Generator: Adobe Illustrator 16.0.0, SVG Export Plug-In . SVG Version: 6.00 Build 0)  -->
<!DOCTYPE svg PUBLIC "-//W3C//DTD SVG 1.1//EN" "http://www.w3.org/Graphics/SVG/1.1/DTD/svg11.dtd">
<svg version="1.1" xmlns="http://www.w3.org/2000/svg" xmlns:xlink="http://www.w3.org/1999/xlink" x="0px" y="0px"
	 width="196.74px" height="204.498px" viewBox="0 0 196.74 204.498" enable-background="new 0 0 196.74 204.498"
	 xml:space="preserve">
<g id="bg" display="none">
</g>
<g id="storm">
</g>
<g id="snow">
	<linearGradient id="SVGID_1_" gradientUnits="userSpaceOnUse" x1="98.3701" y1="0" x2="98.3701" y2="204.4976">
		<stop  offset="0" style="stop-color:#FFFFFF"/>
		<stop  offset="0" style="stop-color:#F9F9FB"/>
		<stop  offset="1" style="stop-color:#CED4E8"/>
	</linearGradient>
	<path fill-rule="evenodd" clip-rule="evenodd" fill="url(#SVGID_1_)" d="M110.23,99.84c0.15,4.457-3.442,7.309-9.406,7.499
		c-2.272,0.072-4.542,0.216-7.676,0.369c1.251,2.012,2.012,3.229,2.767,4.45c2.48,4.014,1.974,7.68-1.421,10.235
		c-3.29,2.476-7.234,1.979-10.238-1.596c-2.699-3.212-5.127-6.649-7.68-9.983c-2.295-2.998-9.45-4.789-12.661-3.149
		c-0.422,0.217-0.851,0.542-1.114,0.928c-1.944,2.843-0.115,13.691,2.652,15.832c3.32,2.57,6.702,5.065,9.968,7.705
		c3.733,3.021,4.53,6.746,2.328,10.118c-2.219,3.398-6.511,4.088-10.729,1.705c-1.14-0.644-2.25-1.341-3.946-2.358
		c-1.597,5.537,0.686,13.917-8.479,13.479c-8.356-0.397-5.987-8.185-7.491-13.673c-1.776,1.123-2.999,1.945-4.269,2.686
		c-3.832,2.238-8.211,1.656-10.345-1.612c-2.376-3.647-1.707-7.057,1.552-9.876c2.031-1.758,3.962-3.909,6.345-4.929
		c8.185-3.5,7.675-10.401,7.332-17.33c-0.039-0.776-0.28-1.744-0.793-2.262c-1.851-1.877-13.789-0.618-15.559,1.642
		c-2.589,3.305-5.015,6.738-7.595,10.053c-3.422,4.398-7.567,5.309-11.307,2.59c-3.495-2.542-3.711-6.361-0.688-11.098
		c0.592-0.927,1.002-1.968,1.729-3.419c-10.808-1.343-13.622-2.821-13.506-7.47c0.224-8.887,7.547-7.123,13.746-8.053
		c-1.196-1.991-2.173-3.446-2.976-4.991c-1.828-3.519-1.788-6.965,1.556-9.474c3.364-2.528,7.075-2.538,9.96,0.772
		c3.191,3.664,5.945,7.707,8.958,11.529c1.794,2.278,13.392,3.833,15.513,2.165c1.959-1.539,1.154-11.08-1.266-13.034
		c-3.265-2.637-6.75-4.997-10.034-7.612c-4.538-3.614-5.548-7.732-2.928-11.247c2.628-3.528,6.704-3.758,11.647-0.69
		c0.812,0.502,1.694,0.887,3.275,1.703c0.147-3.36,0.226-6.145,0.404-8.921c0.312-4.833,3.315-7.895,7.49-7.721
		c3.988,0.167,6.667,3.154,6.901,7.791c0.12,2.347,0.115,4.7,0.206,7.047c0.011,0.304,0.273,0.596,0.752,1.573
		c1.517-0.89,2.959-1.824,4.478-2.609c3.792-1.958,7.375-1.484,9.858,1.977c2.509,3.499,1.747,7.151-1.453,9.894
		c-3.31,2.836-6.962,5.269-10.409,7.949c-3.014,2.34-4.656,9.509-3.012,12.753c1.393,2.746,10.586,2.234,13.032-0.819
		c2.52-3.143,4.859-6.432,7.354-9.598c3.882-4.921,7.816-5.946,11.541-3.101c3.556,2.718,3.667,6.385,0.375,11.557
		c-0.438,0.689-0.802,1.428-1.693,3.03c2.936,0.211,5.277,0.465,7.626,0.532C106.637,92.943,110.081,95.512,110.23,99.84z
		 M112.504,38.647c-0.444,0.89-0.696,1.528-1.06,2.096c-1.854,2.903-1.72,5.244,0.422,6.802c2.293,1.667,4.834,1.109,6.932-1.587
		c1.58-2.031,3.067-4.137,4.655-6.162c1.083-1.386,8.402-2.156,9.536-1.006c0.313,0.317,0.461,0.91,0.486,1.387
		c0.21,4.247,0.522,8.476-4.494,10.623c-1.461,0.625-2.645,1.944-3.891,3.021c-1.997,1.728-2.406,3.819-0.95,6.053
		c1.309,2.004,3.992,2.361,6.341,0.99c0.777-0.455,1.526-0.959,2.616-1.647c0.922,3.363-0.53,8.137,4.593,8.382
		c5.616,0.267,4.218-4.869,5.194-8.264c1.041,0.623,1.722,1.051,2.421,1.446c2.585,1.46,5.216,1.038,6.576-1.046
		c1.35-2.066,0.862-4.351-1.429-6.201c-2.001-1.619-4.072-3.148-6.108-4.724c-1.695-1.312-2.818-7.961-1.626-9.704
		c0.161-0.237,0.425-0.437,0.683-0.569c1.969-1.004,6.354,0.093,7.76,1.93c1.565,2.043,3.055,4.151,4.708,6.12
		c1.842,2.191,4.26,2.496,6.276,0.978c2.08-1.566,2.392-3.814,0.871-6.274c-0.463-0.748-0.929-1.494-1.694-2.727
		c1.92-0.095,3.311-0.183,4.703-0.227c3.656-0.116,5.858-1.864,5.766-4.596c-0.091-2.653-2.202-4.228-5.717-4.328
		c-1.437-0.042-2.873-0.197-4.672-0.326c0.547-0.982,0.768-1.436,1.038-1.858c2.019-3.17,1.948-5.418-0.229-7.083
		c-2.285-1.745-4.696-1.116-7.076,1.9c-1.529,1.941-2.962,3.956-4.507,5.883c-1.5,1.872-7.135,2.186-7.988,0.502
		c-1.008-1.988-0.001-6.382,1.844-7.817c2.115-1.643,4.354-3.134,6.383-4.872c1.961-1.682,2.428-3.92,0.89-6.064
		c-1.521-2.122-3.718-2.412-6.041-1.212c-0.932,0.481-1.815,1.054-2.746,1.6c-0.293-0.6-0.453-0.779-0.46-0.965
		c-0.057-1.438-0.054-2.881-0.127-4.319c-0.144-2.842-1.785-4.672-4.229-4.775c-2.56-0.106-4.4,1.771-4.592,4.733
		c-0.11,1.702-0.156,3.409-0.248,5.468c-0.969-0.5-1.511-0.735-2.006-1.043c-3.032-1.88-5.531-1.74-7.141,0.422
		c-1.605,2.155-0.988,4.68,1.795,6.894c2.012,1.603,4.148,3.049,6.149,4.666c1.483,1.199,1.977,7.046,0.777,7.99
		c-1.301,1.021-8.41,0.069-9.51-1.327c-1.847-2.343-3.535-4.821-5.491-7.067c-1.768-2.029-4.042-2.023-6.104-0.474
		c-2.05,1.538-2.074,3.65-0.953,5.808c0.492,0.946,1.089,1.839,1.822,3.059c-3.798,0.57-8.288-0.51-8.425,4.937
		C104.156,36.919,105.88,37.824,112.504,38.647z M189.418,155.599c-1.842-0.054-3.679-0.253-5.983-0.419
		c0.7-1.258,0.984-1.836,1.33-2.378c2.584-4.06,2.497-6.936-0.294-9.068c-2.924-2.233-6.012-1.429-9.058,2.433
		c-1.958,2.484-3.793,5.064-5.77,7.533c-1.922,2.395-9.135,2.797-10.229,0.642c-1.29-2.546,0-8.173,2.365-10.01
		c2.705-2.102,5.572-4.01,8.168-6.236c2.512-2.152,3.108-5.018,1.139-7.764c-1.949-2.717-4.76-3.088-7.733-1.552
		c-1.193,0.616-2.324,1.349-3.517,2.048c-0.374-0.766-0.578-0.996-0.588-1.234c-0.072-1.842-0.067-3.688-0.163-5.53
		c-0.185-3.638-2.286-5.982-5.415-6.114c-3.276-0.137-5.636,2.267-5.877,6.06c-0.142,2.18-0.203,4.364-0.319,7.001
		c-1.24-0.641-1.934-0.942-2.569-1.337c-3.879-2.407-7.079-2.227-9.141,0.543c-2.056,2.757-1.265,5.989,2.299,8.825
		c2.575,2.051,5.312,3.904,7.872,5.974c1.899,1.533,2.532,9.021,0.995,10.228c-1.664,1.309-10.768,0.089-12.174-1.697
		c-2.364-3.001-4.526-6.174-7.031-9.049c-2.263-2.597-5.175-2.59-7.815-0.606c-2.623,1.969-2.654,4.674-1.221,7.435
		c0.63,1.213,1.396,2.354,2.336,3.918c-4.866,0.729-10.612-0.654-10.788,6.318c-0.091,3.647,2.118,4.809,10.599,5.861
		c-0.569,1.141-0.893,1.957-1.357,2.684c-2.372,3.718-2.201,6.714,0.541,8.71c2.935,2.133,6.187,1.418,8.873-2.033
		c2.022-2.601,3.927-5.296,5.959-7.889c1.389-1.772,10.758-2.76,12.21-1.287c0.4,0.405,0.59,1.166,0.621,1.773
		c0.269,5.437,0.67,10.854-5.752,13.601c-1.872,0.799-3.386,2.488-4.979,3.868c-2.559,2.212-3.082,4.891-1.219,7.749
		c1.674,2.565,5.111,3.025,8.119,1.267c0.995-0.582,1.954-1.227,3.349-2.108c1.181,4.307-0.679,10.416,5.878,10.729
		c7.193,0.343,5.401-6.231,6.653-10.577c1.333,0.798,2.203,1.345,3.099,1.851c3.311,1.87,6.678,1.328,8.419-1.337
		c1.726-2.646,1.103-5.57-1.828-7.94c-2.562-2.072-5.215-4.032-7.82-6.049c-2.171-1.678-3.609-10.192-2.084-12.422
		c0.21-0.304,0.543-0.56,0.876-0.729c2.52-1.287,8.134,0.118,9.935,2.469c2.002,2.617,3.909,5.315,6.027,7.836
		c2.358,2.806,5.454,3.194,8.034,1.253c2.664-2.007,3.062-4.884,1.114-8.032c-0.592-0.958-1.188-1.914-2.17-3.493
		c2.46-0.119,4.24-0.232,6.023-0.29c4.68-0.149,7.5-2.385,7.381-5.884C196.62,157.744,193.917,155.728,189.418,155.599z"/>
</g>
<g id="sleet">
</g>
<g id="wind">
</g>
<g id="rain">
</g>
<g id="partly-cloudy-night">
</g>
<g id="clear-night">
</g>
<g id="partly-cloudy-day">
</g>
<g id="cloudy">
</g>
<g id="fog">
</g>
<g id="clear-day">
</g>
</svg>
