<?xml version="1.0" encoding="utf-8"?>
<!-- Generator: Adobe Illustrator 16.0.0, SVG Export Plug-In . SVG Version: 6.00 Build 0)  -->
<!DOCTYPE svg PUBLIC "-//W3C//DTD SVG 1.1//EN" "http://www.w3.org/Graphics/SVG/1.1/DTD/svg11.dtd">
<svg version="1.1" xmlns="http://www.w3.org/2000/svg" xmlns:xlink="http://www.w3.org/1999/xlink" x="0px" y="0px"
	 width="227.211px" height="253.53px" viewBox="0 0 227.211 253.53" enable-background="new 0 0 227.211 253.53"
	 xml:space="preserve">
<g id="bg" display="none">
	
		<rect x="-341.405" y="251.931" display="inline" fill-rule="evenodd" clip-rule="evenodd" fill="#211F20" width="1156" height="621"/>
</g>
<g id="storm">
	<g>
		<g>
			<path d="M126.664,162.668c16.253,0,31.414,0.248,46.565-0.053c29.06-0.576,51.882-23.291,53.874-53.256
				c1.789-26.895-18.719-52.388-46.207-56.551c-7.428-1.125-15.17-0.17-23.12-0.17c-0.881-1.896-1.907-4.149-2.97-6.386
				C136.826,8.394,92.67-9.504,53.146,5.042c-38.903,14.317-61.287,56.7-50.393,96.551c8.375,30.634,28.462,50.074,59.021,58.589
				c1.774,0.494,4.801,0.354,5.755-0.762c3.392-3.975,6.14-8.498,9.444-13.266c-1.633-0.227-2.422-0.346-3.215-0.443
				c-30.373-3.742-53.615-27.417-57.012-58.075C13.55,58.782,31.219,30.528,58.862,20.292c33.591-12.439,70.647,4.517,83.457,38.211
				c1.808,4.754,3.491,9.555,5.297,14.509c4.389-1.119,8.037-2.559,11.786-2.896c7.049-0.638,14.447-2.04,21.186-0.641
				c19.449,4.041,32.141,22.629,29.881,41.943c-2.306,19.707-18.24,34.207-38.288,34.609c-9.995,0.201-20-0.047-29.997,0.131
				c-1.784,0.031-4.211,0.619-5.205,1.861C133.474,152.397,130.464,157.172,126.664,162.668z M121.305,195.33
				c-1.562,2.557-2.44,4.11-3.427,5.588c-8.402,12.604-16.91,25.135-25.157,37.838c-1.454,2.238-3.099,5.58-2.409,7.674
				c0.884,2.691,3.648,5.615,6.305,6.668c3.799,1.508,6.844-1.158,9.047-4.482c12.229-18.451,24.641-36.785,36.607-55.405
				c1.63-2.537,2.092-6.688,1.359-9.664c-0.938-3.798-4.968-4.41-8.657-4.406c-11.661,0.013-23.323,0.017-34.985-0.012
				c-1.695-0.004-3.391-0.2-5.789-0.353c1.559-2.465,2.578-4.147,3.664-5.787c8.643-13.052,17.377-26.044,25.907-39.168
				c2.856-4.394,1.809-8.838-2.118-11.349c-3.77-2.412-8.145-1.626-10.899,2.459c-12.937,19.182-25.84,38.387-38.546,57.721
				c-3.777,5.748-0.354,12.018,6.494,12.633c1.653,0.148,3.33,0.044,4.996,0.045C95.839,195.332,107.982,195.33,121.305,195.33z"/>
			<linearGradient id="storm-icon_1" gradientUnits="userSpaceOnUse" x1="113.6055" y1="0" x2="113.6055" y2="162.7642">
				<stop  offset="0" style="stop-color:#FFFFFF"/>
				<stop  offset="0" style="stop-color:#A6B0E3"/>
				<stop  offset="1" style="stop-color:#CFD6F1"/>
			</linearGradient>
			<path fill-rule="evenodd" clip-rule="evenodd" fill="url(#storm-icon_1)" d="M126.664,162.668
				c3.801-5.496,6.811-10.271,10.314-14.648c0.994-1.242,3.421-1.83,5.205-1.861c9.997-0.178,20.002,0.07,29.997-0.131
				c20.048-0.402,35.982-14.902,38.288-34.609c2.26-19.314-10.432-37.902-29.881-41.943c-6.738-1.399-14.137,0.003-21.186,0.641
				c-3.749,0.338-7.397,1.777-11.786,2.896c-1.806-4.954-3.489-9.755-5.297-14.509c-12.81-33.694-49.866-50.65-83.457-38.211
				C31.219,30.528,13.55,58.782,16.748,87.636c3.396,30.658,26.639,54.333,57.012,58.075c0.793,0.098,1.582,0.217,3.215,0.443
				c-3.305,4.768-6.053,9.291-9.444,13.266c-0.954,1.116-3.98,1.256-5.755,0.762c-30.56-8.515-50.646-27.955-59.021-58.589
				C-8.141,61.742,14.243,19.359,53.146,5.042c39.524-14.546,83.68,3.352,101.66,41.21c1.062,2.237,2.089,4.49,2.97,6.386
				c7.95,0,15.692-0.954,23.12,0.17c27.488,4.163,47.996,29.656,46.207,56.551c-1.992,29.965-24.814,52.68-53.874,53.256
				C158.078,162.916,142.917,162.668,126.664,162.668z"/>
			<linearGradient id="storm-icon_2" gradientUnits="userSpaceOnUse" x1="107.3062" y1="121.1138" x2="107.3061" y2="253.5303">
				<stop  offset="0" style="stop-color:#FFFFFF"/>
				<stop  offset="0" style="stop-color:#FFB932"/>
				<stop  offset="1" style="stop-color:#F9D867"/>
			</linearGradient>
			<path fill-rule="evenodd" clip-rule="evenodd" fill="url(#storm-icon_2)" d="M121.305,195.33c-13.323,0-25.466,0.002-37.608,0
				c-1.666-0.001-3.343,0.104-4.996-0.045c-6.848-0.615-10.271-6.885-6.494-12.633c12.706-19.334,25.609-38.539,38.546-57.721
				c2.755-4.085,7.13-4.871,10.899-2.459c3.927,2.511,4.975,6.955,2.118,11.349c-8.53,13.124-17.265,26.116-25.907,39.168
				c-1.086,1.64-2.105,3.322-3.664,5.787c2.398,0.152,4.094,0.349,5.789,0.353c11.662,0.028,23.324,0.024,34.985,0.012
				c3.689-0.004,7.72,0.608,8.657,4.406c0.732,2.976,0.271,7.127-1.359,9.664c-11.967,18.62-24.379,36.954-36.607,55.405
				c-2.203,3.324-5.248,5.99-9.047,4.482c-2.656-1.053-5.421-3.977-6.305-6.668c-0.689-2.094,0.955-5.436,2.409-7.674
				c8.247-12.703,16.755-25.234,25.157-37.838C118.865,199.44,119.743,197.887,121.305,195.33z"/>
		</g>
	</g>
</g>
<g id="snow">
</g>
<g id="sleet">
</g>
<g id="wind">
</g>
<g id="rain">
</g>
<g id="partly-cloudy-night">
</g>
<g id="clear-night">
</g>
<g id="partly-cloudy-day">
</g>
<g id="cloudy">
</g>
<g id="fog">
</g>
<g id="clear-day">
</g>
</svg>
